<?xml version="1.0" encoding="UTF-8"?>
<svg xmlns="http://www.w3.org/2000/svg" xmlns:xlink="http://www.w3.org/1999/xlink" viewBox="0 0 32 32" version="1.1" fill="#ffffff" width="100px" height="100px">
<g id="surface1" fill="#ffffff">
<path style=" fill-rule:evenodd;" d="M 18.070313 15.046875 C 18.070313 16.394531 18.101563 17.519531 17.425781 18.71875 C 16.875 19.691406 16 20.289063 15.027344 20.289063 C 13.703125 20.289063 12.925781 19.277344 12.925781 17.78125 C 12.925781 14.835938 15.570313 14.296875 18.070313 14.296875 Z M 21.558594 23.480469 C 21.328125 23.6875 21 23.699219 20.742188 23.5625 C 19.59375 22.605469 19.386719 22.164063 18.757813 21.257813 C 16.859375 23.191406 15.515625 23.773438 13.054688 23.773438 C 10.140625 23.773438 7.875 21.972656 7.875 18.378906 C 7.875 15.570313 9.398438 13.660156 11.566406 12.726563 C 13.441406 11.902344 16.0625 11.753906 18.070313 11.527344 L 18.070313 11.078125 C 18.070313 10.253906 18.136719 9.28125 17.648438 8.570313 C 17.226563 7.933594 16.417969 7.671875 15.707031 7.671875 C 14.386719 7.671875 13.214844 8.347656 12.925781 9.746094 C 12.867188 10.058594 12.640625 10.367188 12.324219 10.382813 L 8.972656 10.019531 C 8.691406 9.957031 8.375 9.730469 8.457031 9.296875 C 9.226563 5.230469 12.902344 4 16.191406 4 C 17.875 4 20.074219 4.449219 21.402344 5.722656 C 23.085938 7.296875 22.925781 9.394531 22.925781 11.675781 L 22.925781 17.066406 C 22.925781 18.6875 23.597656 19.398438 24.230469 20.273438 C 24.453125 20.589844 24.5 20.960938 24.21875 21.191406 C 23.515625 21.785156 22.257813 22.875 21.566406 23.488281 Z " fill="#ffffff"/>
<path style=" fill-rule:evenodd;" d="M 26.113281 24.902344 C 23.371094 26.925781 19.398438 28 15.976563 28 C 11.179688 28 6.859375 26.226563 3.589844 23.277344 C 3.335938 23.042969 3.5625 22.726563 3.871094 22.90625 C 7.398438 24.960938 11.757813 26.195313 16.261719 26.195313 C 19.300781 26.195313 22.640625 25.566406 25.714844 24.261719 C 26.179688 24.0625 26.566406 24.566406 26.113281 24.902344 Z " fill="#ffffff"/>
<path style=" fill-rule:evenodd;" d="M 27.253906 23.597656 C 26.902344 23.148438 24.9375 23.386719 24.054688 23.492188 C 23.785156 23.523438 23.742188 23.289063 23.984375 23.121094 C 25.554688 22.019531 28.125 22.335938 28.425781 22.707031 C 28.726563 23.078125 28.34375 25.65625 26.875 26.886719 C 26.648438 27.074219 26.433594 26.972656 26.535156 26.726563 C 26.863281 25.898438 27.605469 24.046875 27.253906 23.597656 Z " fill="#ffffff"/>
</g>
</svg>
